<svg width="48" height="56" viewBox="0 0 48 56" fill="none" xmlns="http://www.w3.org/2000/svg">
<path d="M48 14.2108V33.9843C48 41.8323 41.6674 48.1951 33.8565 48.1951H32.426L25.1206 55.5305C24.8345 55.8179 24.4387 56 24 56C23.5947 56 23.2275 55.8515 22.9462 55.6023L22.8222 55.4778L22.8174 55.473L15.574 48.1951H14.1387C6.3326 48.1951 0 41.8323 0 33.9843V14.2108C0 6.36277 6.3326 0 14.1435 0H33.8565C41.6674 0 48 6.36277 48 14.2108Z" fill="#FFD666"/>
<path d="M11.1758 27.3926C9.7834 27.3926 8.98976 28.9868 9.79766 30.1379C12.9389 34.622 18.1332 37.5455 24.0023 37.5455C29.8714 37.5455 35.061 34.6171 38.2022 30.1379C39.0101 28.9868 38.2165 27.3926 36.8241 27.3926H11.1758Z" fill="white"/>
<path d="M19.3309 20.6062H10.9288V16.3485C10.9288 13.9981 12.8107 12.0908 15.1299 12.0908C17.449 12.0908 19.3309 13.9981 19.3309 16.3485V20.6062Z" fill="white"/>
<path d="M37.0768 20.6062H28.6747V16.3485C28.6747 13.9981 30.5566 12.0908 32.8757 12.0908C35.1949 12.0908 37.0768 13.9981 37.0768 16.3485V20.6062Z" fill="white"/>
</svg>
